<svg xmlns="http://www.w3.org/2000/svg" width="1400" height="600" viewBox="0 0 1400 600" fill="none">
  <defs>
    <linearGradient id="bg" x1="0" y1="0" x2="1" y2="0">
      <stop offset="0%" stop-color="#05080B"/>
      <stop offset="34%" stop-color="#091521"/>
      <stop offset="68%" stop-color="#0B2942"/>
      <stop offset="100%" stop-color="#114A74"/>
    </linearGradient>
    <radialGradient id="glowRight" cx="0" cy="0" r="1" gradientUnits="userSpaceOnUse" gradientTransform="translate(1098 154) rotate(136) scale(620 390)">
      <stop stop-color="#50B9EE" stop-opacity="0.32"/>
      <stop offset="1" stop-color="#50B9EE" stop-opacity="0"/>
    </radialGradient>
    <radialGradient id="glowGold" cx="0" cy="0" r="1" gradientUnits="userSpaceOnUse" gradientTransform="translate(278 438) rotate(10) scale(430 220)">
      <stop stop-color="#D1AF69" stop-opacity="0.24"/>
      <stop offset="1" stop-color="#D1AF69" stop-opacity="0"/>
    </radialGradient>
    <linearGradient id="glass" x1="0" y1="0" x2="1" y2="1">
      <stop offset="0%" stop-color="#F9FCFF" stop-opacity="0.18"/>
      <stop offset="100%" stop-color="#B7D6EB" stop-opacity="0.05"/>
    </linearGradient>
    <linearGradient id="glassEdge" x1="0" y1="0" x2="1" y2="1">
      <stop offset="0%" stop-color="#EAF6FF" stop-opacity="0.55"/>
      <stop offset="100%" stop-color="#A1D0ED" stop-opacity="0.14"/>
    </linearGradient>
    <linearGradient id="cyan" x1="0" y1="0" x2="1" y2="1">
      <stop offset="0%" stop-color="#B0ECFF"/>
      <stop offset="100%" stop-color="#4BAEE2"/>
    </linearGradient>
    <linearGradient id="gold" x1="0" y1="0" x2="1" y2="1">
      <stop offset="0%" stop-color="#E1C789"/>
      <stop offset="100%" stop-color="#967540"/>
    </linearGradient>
    <filter id="blurLarge" x="-20%" y="-20%" width="140%" height="140%">
      <feGaussianBlur stdDeviation="26"/>
    </filter>
    <filter id="shadow" x="-30%" y="-30%" width="160%" height="160%">
      <feDropShadow dx="0" dy="20" stdDeviation="20" flood-color="#02060A" flood-opacity="0.36"/>
    </filter>
    <pattern id="grid" width="56" height="56" patternUnits="userSpaceOnUse">
      <path d="M56 0H0V56" stroke="#B3D6EB" stroke-opacity="0.08"/>
    </pattern>
  </defs>

  <rect width="1400" height="600" fill="url(#bg)"/>
  <rect width="1400" height="600" fill="url(#glowRight)"/>
  <rect width="1400" height="600" fill="url(#glowGold)"/>
  <rect width="1400" height="600" fill="url(#grid)"/>

  <g opacity="0.18">
    <path d="M0 108H1400M0 212H1400M0 316H1400M0 420H1400M0 524H1400" stroke="#D3E8F4"/>
    <path d="M118 0V600M242 0V600M366 0V600M490 0V600M614 0V600M738 0V600M862 0V600M986 0V600M1110 0V600M1234 0V600" stroke="#D3E8F4"/>
  </g>

  <g filter="url(#blurLarge)" opacity="0.34">
    <circle cx="1096" cy="198" r="92" fill="#4EB8ED"/>
    <circle cx="284" cy="444" r="62" fill="#CBA461"/>
  </g>

  <g opacity="0.44" fill="none">
    <circle cx="1070" cy="234" r="172" stroke="url(#gold)" stroke-width="1.4"/>
    <circle cx="1070" cy="234" r="220" stroke="#8FD9F7" stroke-opacity="0.18" stroke-width="1"/>
  </g>

  <g transform="translate(774 114)" filter="url(#shadow)">
    <g transform="rotate(-6 230 150)">
      <rect width="472" height="300" rx="26" fill="url(#glass)"/>
      <rect x="1.2" y="1.2" width="469.6" height="297.6" rx="24.8" stroke="url(#glassEdge)" stroke-width="2.4"/>

      <g opacity="0.24">
        <path d="M40 76H432M40 132H432M40 188H432M40 244H432" stroke="#D7ECF7"/>
        <path d="M90 36V264M170 36V264M250 36V264M330 36V264M410 36V264" stroke="#D7ECF7"/>
      </g>

      <g opacity="0.86" stroke-linecap="round" stroke-linejoin="round">
        <path d="M78 222L166 178L234 196L314 128L396 92" stroke="url(#cyan)" stroke-width="10"/>
        <path d="M396 92L372 92" stroke="url(#gold)" stroke-width="10"/>
        <path d="M396 92L396 116" stroke="url(#gold)" stroke-width="10"/>
      </g>

      <g opacity="0.76">
        <circle cx="78" cy="222" r="10" fill="#D5B36A"/>
        <circle cx="166" cy="178" r="10" fill="#AEEBFF"/>
        <circle cx="234" cy="196" r="10" fill="#D5B36A"/>
        <circle cx="314" cy="128" r="10" fill="#AEEBFF"/>
        <circle cx="396" cy="92" r="10" fill="#D5B36A"/>
      </g>
    </g>
  </g>

  <g transform="translate(170 236)" filter="url(#shadow)">
    <g transform="rotate(6 166 114)">
      <rect width="332" height="228" rx="22" fill="url(#glass)"/>
      <rect x="1.2" y="1.2" width="329.6" height="225.6" rx="20.8" stroke="url(#glassEdge)" stroke-width="2.2"/>
      <g opacity="0.24">
        <path d="M38 74H294M38 116H294M38 158H294M38 200H294" stroke="#D7ECF7"/>
        <path d="M82 34V202M130 34V202M178 34V202M226 34V202M274 34V202" stroke="#D7ECF7"/>
      </g>
      <g opacity="0.84">
        <path d="M62 180L118 136L170 150L226 104L274 86" stroke="#8FDDFB" stroke-width="8" stroke-linecap="round" stroke-linejoin="round"/>
        <path d="M62 142L118 126L170 116L226 98L274 72" stroke="#D5B36A" stroke-width="5" stroke-linecap="round" stroke-linejoin="round" opacity="0.72"/>
      </g>
    </g>
  </g>
</svg>
