<svg xmlns="http://www.w3.org/2000/svg" width="1400" height="600" viewBox="0 0 1400 600" fill="none">
  <defs>
    <linearGradient id="bg" x1="0" y1="0" x2="1" y2="0">
      <stop offset="0%" stop-color="#05080B"/>
      <stop offset="34%" stop-color="#091521"/>
      <stop offset="68%" stop-color="#0B2942"/>
      <stop offset="100%" stop-color="#114A74"/>
    </linearGradient>
    <radialGradient id="glowRight" cx="0" cy="0" r="1" gradientUnits="userSpaceOnUse" gradientTransform="translate(1090 166) rotate(138) scale(620 380)">
      <stop stop-color="#50B9EE" stop-opacity="0.32"/>
      <stop offset="1" stop-color="#50B9EE" stop-opacity="0"/>
    </radialGradient>
    <radialGradient id="glowGold" cx="0" cy="0" r="1" gradientUnits="userSpaceOnUse" gradientTransform="translate(304 438) rotate(12) scale(430 220)">
      <stop stop-color="#D1AF69" stop-opacity="0.22"/>
      <stop offset="1" stop-color="#D1AF69" stop-opacity="0"/>
    </radialGradient>
    <linearGradient id="glass" x1="0" y1="0" x2="1" y2="1">
      <stop offset="0%" stop-color="#F9FCFF" stop-opacity="0.18"/>
      <stop offset="100%" stop-color="#B7D6EB" stop-opacity="0.05"/>
    </linearGradient>
    <linearGradient id="glassEdge" x1="0" y1="0" x2="1" y2="1">
      <stop offset="0%" stop-color="#EAF6FF" stop-opacity="0.55"/>
      <stop offset="100%" stop-color="#A1D0ED" stop-opacity="0.14"/>
    </linearGradient>
    <linearGradient id="cyan" x1="0" y1="0" x2="1" y2="1">
      <stop offset="0%" stop-color="#B0ECFF"/>
      <stop offset="100%" stop-color="#4BAEE2"/>
    </linearGradient>
    <linearGradient id="gold" x1="0" y1="0" x2="1" y2="1">
      <stop offset="0%" stop-color="#E1C789"/>
      <stop offset="100%" stop-color="#967540"/>
    </linearGradient>
    <filter id="blurLarge" x="-20%" y="-20%" width="140%" height="140%">
      <feGaussianBlur stdDeviation="26"/>
    </filter>
    <filter id="shadow" x="-30%" y="-30%" width="160%" height="160%">
      <feDropShadow dx="0" dy="20" stdDeviation="20" flood-color="#02060A" flood-opacity="0.36"/>
    </filter>
    <pattern id="grid" width="56" height="56" patternUnits="userSpaceOnUse">
      <path d="M56 0H0V56" stroke="#B3D6EB" stroke-opacity="0.08"/>
    </pattern>
  </defs>

  <rect width="1400" height="600" fill="url(#bg)"/>
  <rect width="1400" height="600" fill="url(#glowRight)"/>
  <rect width="1400" height="600" fill="url(#glowGold)"/>
  <rect width="1400" height="600" fill="url(#grid)"/>

  <g opacity="0.18">
    <path d="M0 108H1400M0 212H1400M0 316H1400M0 420H1400M0 524H1400" stroke="#D3E8F4"/>
    <path d="M118 0V600M242 0V600M366 0V600M490 0V600M614 0V600M738 0V600M862 0V600M986 0V600M1110 0V600M1234 0V600" stroke="#D3E8F4"/>
  </g>

  <g filter="url(#blurLarge)" opacity="0.34">
    <circle cx="1084" cy="214" r="90" fill="#4EB8ED"/>
    <circle cx="302" cy="442" r="56" fill="#CBA461"/>
  </g>

  <g transform="translate(248 156)" filter="url(#shadow)">
    <rect width="454" height="288" rx="26" fill="url(#glass)"/>
    <rect x="1.2" y="1.2" width="451.6" height="285.6" rx="24.8" stroke="url(#glassEdge)" stroke-width="2.4"/>

    <g opacity="0.24">
      <path d="M42 78H412M42 130H412M42 182H412M42 234H412" stroke="#D7ECF7"/>
      <path d="M96 34V250M170 34V250M244 34V250M318 34V250M392 34V250" stroke="#D7ECF7"/>
    </g>

    <g opacity="0.84">
      <path d="M74 94H198" stroke="#8FDDFB" stroke-width="12" stroke-linecap="round"/>
      <path d="M74 146H278" stroke="#D5B36A" stroke-width="10" stroke-linecap="round"/>
      <path d="M74 198H228" stroke="#8FDDFB" stroke-width="10" stroke-linecap="round"/>
      <path d="M74 250H312" stroke="#D5B36A" stroke-width="10" stroke-linecap="round"/>
    </g>
  </g>

  <g transform="translate(762 102)" filter="url(#shadow)">
    <circle cx="168" cy="168" r="116" fill="#0B1824" fill-opacity="0.26"/>
    <circle cx="168" cy="168" r="108" fill="url(#glass)"/>
    <circle cx="168" cy="168" r="108" stroke="url(#glassEdge)" stroke-width="4"/>
    <circle cx="168" cy="168" r="88" fill="#90DAF7" fill-opacity="0.12"/>
    <circle cx="168" cy="168" r="88" stroke="#A9E8FE" stroke-opacity="0.42" stroke-width="2.2"/>
    <path d="M232 232L306 306" stroke="url(#gold)" stroke-width="24" stroke-linecap="round"/>

    <g opacity="0.76">
      <path d="M112 170L146 204L226 122" stroke="url(#gold)" stroke-width="16" stroke-linecap="round" stroke-linejoin="round"/>
      <path d="M120 108H218" stroke="#A7E7FE" stroke-width="9" stroke-linecap="round"/>
      <path d="M114 142H204" stroke="#A7E7FE" stroke-width="9" stroke-linecap="round"/>
    </g>
  </g>

  <g opacity="0.42" fill="none">
    <circle cx="1088" cy="260" r="174" stroke="url(#gold)" stroke-width="1.4"/>
    <circle cx="1088" cy="260" r="222" stroke="#8FD9F7" stroke-opacity="0.18" stroke-width="1"/>
  </g>
</svg>
