<?xml version="1.0" encoding="utf-8"?>
<!-- Generator: Adobe Illustrator 24.0.2, SVG Export Plug-In . SVG Version: 6.00 Build 0)  -->
<svg version="1.1" id="Layer_1" xmlns="http://www.w3.org/2000/svg" xmlns:xlink="http://www.w3.org/1999/xlink" x="0px" y="0px"
	 width="300px" height="300px" viewBox="0 0 300 300" style="enable-background:new 0 0 300 300;" xml:space="preserve">
<g>
	<path d="M239.5,137.8c-0.5-23.2-9.7-44.9-26.2-61.3c-16.9-16.9-39.4-26.2-63.3-26.2s-46.4,9.3-63.3,26.2
		C70.2,92.9,61,114.6,60.5,137.8h0v22.8c0,23.9,9.3,46.4,26.2,63.3s39.4,26.2,63.3,26.2s46.4-9.3,63.3-26.2
		c16.7-16.7,26-38.8,26.2-62.4h0L239.5,137.8L239.5,137.8z M98.3,224.1c-13.1-10.7-22.8-25.4-27.4-42.1c4.1,7.7,9.4,14.8,15.7,21.2
		c3.6,3.6,7.5,6.9,11.6,9.8V224.1z M122.5,237.8c-6.2-2.2-12.1-5.2-17.5-8.7v-11.8c5.5,3.2,11.4,5.8,17.5,7.8V237.8z M146.7,242.5
		c-6-0.2-11.9-1.1-17.5-2.6v-12.9c5.7,1.3,11.5,2.1,17.5,2.4V242.5z M170.8,239.8c-5.6,1.5-11.5,2.4-17.5,2.6v-13.2
		c5.9-0.2,11.8-1,17.5-2.4V239.8z M195,229c-5.4,3.6-11.3,6.5-17.5,8.7V225c6.1-2,11.9-4.6,17.5-7.8V229z M201.7,224.1v-11.2
		c4.1-2.9,8-6.2,11.6-9.8c6.3-6.3,11.6-13.5,15.7-21.2C224.6,198.7,214.8,213.4,201.7,224.1z M231.2,150.2
		c-5.1,40.2-39.6,71.5-81.2,71.5S74,190.5,68.8,150.2c-0.4-3.4-0.7-6.9-0.7-10.4c0-7.4,1-14.5,2.8-21.3
		c9.4-34.9,41.3-60.6,79.1-60.6s69.7,25.7,79.1,60.6c1.8,6.8,2.8,13.9,2.8,21.3C231.9,143.3,231.7,146.8,231.2,150.2z M180.5,175.6
		c-0.3-0.2-0.8-0.3-1.3-0.3c-0.6,0-1.3,0.2-2,0.5c-6.9,4.4-15,6.7-23.3,6.7c-18.5,0-35.3-12.2-40.9-29.7l-0.6-1.8h48.2
		c1.8,0,3.2-1.4,3.2-3.2c0-1.8-1.5-3.2-3.2-3.2h-49.4l-0.1-1.3c-0.3-3.3-0.1-6.3,0.1-8.8l0.1-1.3h49.3c1.8,0,3.2-1.4,3.2-3.2
		s-1.4-3.2-3.2-3.2h-47.9l0.7-1.9c6.2-17,21.8-28.5,38.9-28.5c8.8,0,15.6,1.6,22.2,5.1c0.5,0.2,0.9,0.3,1.4,0.3
		c1.1,0,2.2-0.6,2.8-1.6c0.4-0.7,0.6-1.6,0.4-2.5c-0.2-0.8-0.7-1.5-1.5-2c-7.4-3.9-15.6-5.8-25.8-5.8c-20.6,0-39.2,14.7-45.3,35.8
		l-0.3,1H91.8c-1.8,0-3.2,1.5-3.2,3.2c0,1.8,1.5,3.2,3.2,3.2h13l-0.2,1.5c-0.2,2.4-0.4,5.3-0.1,8.3l0.2,1.5H91.8
		c-1.7,0-3.2,1.5-3.2,3.2c0,1.8,1.5,3.2,3.2,3.2h14l0.2,1.1c2.4,10.5,8.7,20,17.9,26.8c8.8,6.5,19.4,10.1,30,10.1
		c9.4,0,18.7-2.7,26.8-7.8c1.1-0.7,1.3-1.7,1.3-2.3C182.2,177.6,181.5,176.3,180.5,175.6z"/>
</g>
</svg>
