<?xml version="1.0" encoding="utf-8"?>
<!-- Generator: Adobe Illustrator 24.0.2, SVG Export Plug-In . SVG Version: 6.00 Build 0)  -->
<svg version="1.1" id="Layer_1" xmlns="http://www.w3.org/2000/svg" xmlns:xlink="http://www.w3.org/1999/xlink" x="0px" y="0px"
	 viewBox="0 0 200 109" enable-background="new 0 0 200 109" xml:space="preserve">
<g>
	<polygon fill="#103150" points="31.43,72.4 31.43,76.19 28.42,76.19 28.42,72.4 28.42,62.13 28.42,51.83 31.43,51.83 61.25,51.83 
		61.25,55.65 31.43,55.65 31.43,62.13 57.86,62.13 57.86,65.92 31.43,65.92 	"/>
	<path fill="#103150" d="M90.36,51.83c0.71,0,1.38,0.17,2.01,0.51c0.63,0.34,1.18,0.81,1.65,1.39c0.47,0.59,0.85,1.27,1.13,2.05
		c0.28,0.78,0.42,1.62,0.42,2.52v11.4c0,0.9-0.14,1.74-0.42,2.52c-0.28,0.78-0.65,1.47-1.13,2.05c-0.47,0.59-1.02,1.05-1.65,1.39
		c-0.63,0.34-1.3,0.51-2.01,0.51H67.87c-0.71,0-1.38-0.17-2.02-0.51c-0.63-0.34-1.19-0.81-1.66-1.39c-0.47-0.59-0.84-1.27-1.12-2.05
		c-0.27-0.78-0.41-1.62-0.41-2.52v-11.4c0-0.9,0.14-1.74,0.41-2.52c0.27-0.78,0.64-1.47,1.12-2.05c0.47-0.59,1.03-1.05,1.66-1.39
		c0.63-0.34,1.31-0.51,2.02-0.51H90.36z M67.87,55.65c-0.3,0-0.58,0.07-0.84,0.21c-0.27,0.14-0.5,0.33-0.7,0.57
		c-0.2,0.24-0.36,0.53-0.48,0.86c-0.12,0.33-0.17,0.67-0.17,1.03v11.4c0,0.36,0.06,0.7,0.17,1.03c0.12,0.33,0.27,0.61,0.48,0.86
		c0.2,0.24,0.43,0.44,0.7,0.59c0.27,0.15,0.55,0.22,0.84,0.22h22.49c0.3,0,0.58-0.07,0.85-0.22c0.26-0.15,0.5-0.34,0.7-0.59
		c0.2-0.24,0.36-0.53,0.47-0.86c0.12-0.33,0.18-0.67,0.18-1.03v-11.4c0-0.36-0.06-0.7-0.18-1.03c-0.11-0.33-0.27-0.61-0.47-0.86
		c-0.2-0.24-0.43-0.44-0.7-0.57c-0.27-0.14-0.55-0.21-0.85-0.21H67.87z"/>
	<path fill="#103150" d="M100.51,55.23c0.88-1.04,1.89-1.87,3.03-2.48c1.14-0.61,2.36-0.92,3.65-0.92h23.21v3.82h-3.03h-20.18
		c-0.78,0-1.52,0.16-2.23,0.49c-0.71,0.33-1.35,0.77-1.92,1.35c-0.57,0.57-1.06,1.26-1.46,2.06c-0.4,0.8-0.69,1.66-0.85,2.59
		c-0.05,0.31-0.1,0.62-0.15,0.92c-0.05,0.3-0.07,0.62-0.07,0.94v0.05c0,0.33,0.02,0.64,0.07,0.94c0.04,0.3,0.09,0.62,0.15,0.94
		c0.17,0.93,0.45,1.79,0.85,2.58c0.4,0.79,0.89,1.48,1.46,2.05c0.57,0.58,1.21,1.03,1.92,1.36c0.71,0.33,1.46,0.49,2.23,0.49h20.18
		h3.03v3.79h-23.21c-1.29,0-2.51-0.31-3.65-0.92c-1.14-0.61-2.15-1.43-3.03-2.46c-0.07-0.08-0.12-0.16-0.17-0.22
		c-0.04-0.07-0.1-0.13-0.17-0.2c-0.66-0.88-1.21-1.87-1.65-2.97c-0.44-1.1-0.73-2.27-0.87-3.51c-0.05-0.33-0.09-0.64-0.12-0.95
		c-0.03-0.31-0.04-0.64-0.04-0.98c0-0.33,0.01-0.64,0.04-0.94c0.03-0.3,0.07-0.61,0.12-0.92c0.14-1.25,0.43-2.43,0.87-3.53
		c0.44-1.1,0.99-2.08,1.65-2.95c0.07-0.08,0.12-0.15,0.17-0.22C100.39,55.36,100.45,55.29,100.51,55.23"/>
	<path fill="#103150" d="M165.18,69.71c0,1.32-0.27,2.5-0.82,3.52c-0.55,1.03-1.28,1.8-2.18,2.32c-0.67,0.42-1.38,0.64-2.13,0.64
		h-22.55c-0.75,0-1.46-0.21-2.13-0.64c-0.44-0.26-0.84-0.59-1.21-0.98c-0.37-0.39-0.69-0.84-0.95-1.35
		c-0.27-0.51-0.47-1.06-0.62-1.65c-0.15-0.6-0.22-1.22-0.22-1.87v-11.4v-6.48h3.01v0.64v5.85v11.4c0,0.36,0.06,0.7,0.18,1.03
		c0.12,0.33,0.27,0.61,0.47,0.86c0.19,0.24,0.42,0.44,0.68,0.59c0.26,0.15,0.53,0.22,0.81,0.22h22.55c0.3,0,0.58-0.07,0.83-0.22
		c0.26-0.15,0.49-0.34,0.68-0.59c0.19-0.24,0.35-0.53,0.46-0.86c0.11-0.33,0.16-0.67,0.16-1.03v-11.4v-5.85v-0.64h3.01v6.48V69.71z"
		/>
	<path fill="#103150" d="M171.17,55.9c-0.31,0.17-0.58,0.4-0.81,0.7c-0.23,0.29-0.42,0.64-0.55,1.03c-0.14,0.39-0.2,0.81-0.2,1.25
		c0,0.44,0.07,0.86,0.2,1.26c0.14,0.4,0.32,0.75,0.55,1.04c0.23,0.29,0.5,0.53,0.81,0.7c0.31,0.17,0.65,0.26,1.01,0.26h21.72
		c0.74,0,1.43,0.17,2.08,0.51c0.65,0.34,1.22,0.79,1.71,1.35c0.22,0.28,0.42,0.58,0.61,0.91c0.19,0.33,0.37,0.67,0.53,1.03
		c0.4,0.98,0.6,2.05,0.6,3.23c0,1.16-0.2,2.24-0.6,3.25c-0.47,1.14-1.14,2.06-2.02,2.75c-0.88,0.69-1.87,1.04-2.97,1.04H169.6h-3.01
		V72.4h3.01h24.24c0.36,0,0.7-0.09,1.01-0.26c0.31-0.17,0.58-0.4,0.82-0.7c0.23-0.29,0.42-0.64,0.55-1.04
		c0.14-0.4,0.2-0.82,0.2-1.26c0-0.44-0.07-0.86-0.2-1.25c-0.14-0.39-0.32-0.73-0.54-1.03c-0.23-0.29-0.49-0.53-0.79-0.7
		c-0.31-0.17-0.63-0.26-0.98-0.26h-0.06h-21.72c-0.88,0-1.72-0.28-2.52-0.83c-0.22-0.15-0.43-0.31-0.64-0.49
		c-0.21-0.18-0.39-0.38-0.56-0.61c-0.25-0.24-0.46-0.53-0.65-0.86c-0.19-0.33-0.35-0.66-0.49-1c-0.22-0.49-0.39-1-0.49-1.54
		c-0.11-0.54-0.16-1.08-0.16-1.64V58.8c0-0.55,0.05-1.1,0.16-1.64c0.11-0.54,0.28-1.04,0.49-1.52c0.25-0.67,0.58-1.25,0.99-1.75
		c0.41-0.5,0.87-0.91,1.36-1.24c0.8-0.55,1.66-0.83,2.58-0.83h27.25v3.82h-3.01h-24.24C171.82,55.65,171.48,55.73,171.17,55.9"/>
	<path fill="#103150" d="M97.22,79.61h2.84c0.81,0,1.47,0.13,1.98,0.38c0.51,0.25,0.77,0.66,0.77,1.23v4.24
		c0,0.35-0.14,0.63-0.41,0.82c-0.28,0.2-0.63,0.33-1.05,0.42c0.45,0.07,0.83,0.21,1.15,0.42c0.32,0.21,0.48,0.53,0.48,0.96v4.59
		c0,0.57-0.25,0.98-0.73,1.23c-0.49,0.25-1.11,0.38-1.85,0.38h-3.16V79.61z M99.97,86.37c0.55,0,0.92-0.1,1.1-0.3
		c0.18-0.2,0.27-0.42,0.27-0.65v-4.24c0-0.3-0.1-0.51-0.29-0.64c-0.19-0.13-0.58-0.19-1.15-0.19h-1.21v6.03H99.97z M98.69,87.11
		v6.44h1.21c0.6,0,1.01-0.07,1.24-0.2c0.23-0.14,0.35-0.34,0.35-0.61V88.1c0-0.66-0.51-0.99-1.53-0.99H98.69z"/>
	<path fill="#103150" d="M111.43,79.61h2.94c0.81,0,1.46,0.12,1.96,0.35c0.5,0.23,0.75,0.58,0.75,1.06v4.3
		c0,0.35-0.09,0.65-0.29,0.9c-0.19,0.25-0.61,0.43-1.24,0.54c0.42,0.08,0.79,0.23,1.08,0.45c0.3,0.22,0.45,0.51,0.45,0.89v6.17
		h-1.47V88.1c0-0.26-0.12-0.49-0.37-0.69c-0.24-0.2-0.66-0.3-1.26-0.3h-1.09v7.17h-1.47V79.61z M114.04,86.37
		c1.04,0,1.56-0.3,1.56-0.89v-4.3c0-0.55-0.48-0.83-1.44-0.83h-1.28v6.03H114.04z"/>
	<path fill="#103150" d="M129.93,90.03H127c-0.11,0.69-0.22,1.4-0.35,2.12c-0.13,0.72-0.25,1.43-0.35,2.12h-1.31l2.55-14.66h1.95
		l2.65,14.66h-1.47L129.93,90.03z M129.84,89.3c-0.13-0.8-0.26-1.58-0.4-2.36c-0.14-0.77-0.27-1.56-0.4-2.35
		c-0.04-0.14-0.07-0.27-0.08-0.42c-0.01-0.14-0.04-0.28-0.08-0.42c-0.04-0.3-0.09-0.56-0.13-0.78c-0.04-0.22-0.08-0.44-0.11-0.66
		c-0.03-0.22-0.07-0.44-0.11-0.67c-0.04-0.23-0.07-0.49-0.09-0.79c-0.04,0.26-0.07,0.51-0.1,0.77c-0.02,0.26-0.05,0.51-0.09,0.77
		c-0.04,0.38-0.09,0.75-0.13,1.11c-0.04,0.36-0.09,0.72-0.16,1.09c-0.13,0.77-0.27,1.56-0.41,2.35c-0.15,0.8-0.29,1.58-0.41,2.36
		H129.84z"/>
	<path fill="#103150" d="M139.92,79.61h2.11l2.14,9.44c0.19,0.96,0.47,2.13,0.83,3.51c-0.06-0.81-0.12-1.54-0.16-2.17
		c-0.04-0.64-0.06-1.12-0.06-1.46v-9.32h1.47v14.66h-2.11l-2.2-9.32c-0.09-0.35-0.19-0.87-0.32-1.55c-0.13-0.68-0.27-1.42-0.42-2.2
		c0.02,0.39,0.04,0.76,0.06,1.12c0.02,0.35,0.04,0.67,0.06,0.95c0.02,0.3,0.04,0.55,0.05,0.76c0.01,0.21,0.01,0.37,0.01,0.48v9.77
		h-1.47V79.61z"/>
	<path fill="#103150" d="M154.7,79.61h2.81c0.96,0,1.69,0.13,2.19,0.38c0.5,0.25,0.75,0.66,0.75,1.23v11.45
		c0,0.57-0.25,0.98-0.75,1.23c-0.5,0.25-1.23,0.38-2.19,0.38h-2.81V79.61z M157.38,93.54c1.06,0,1.59-0.27,1.59-0.81V81.16
		c0-0.54-0.53-0.81-1.59-0.81h-1.21v13.2H157.38z"/>
	<rect x="168.99" y="79.61" fill="#103150" width="1.47" height="14.66"/>
	<path fill="#103150" d="M178.98,79.61h2.11l2.14,9.44c0.19,0.96,0.47,2.13,0.83,3.51c-0.06-0.81-0.12-1.54-0.16-2.17
		c-0.04-0.64-0.06-1.12-0.06-1.46v-9.32h1.47v14.66h-2.11l-2.2-9.32c-0.09-0.35-0.19-0.87-0.32-1.55c-0.13-0.68-0.27-1.42-0.41-2.2
		c0.02,0.39,0.04,0.76,0.06,1.12c0.02,0.35,0.04,0.67,0.06,0.95c0.02,0.3,0.04,0.55,0.05,0.76c0.01,0.21,0.01,0.37,0.01,0.48v9.77
		h-1.47V79.61z"/>
	<path fill="#103150" d="M196.76,87.15h2.74v6.72l-0.29,0.14c-0.23,0.09-0.57,0.18-1,0.24c-0.44,0.07-0.96,0.1-1.58,0.1
		c-0.92,0-1.62-0.14-2.12-0.43c-0.5-0.28-0.75-0.68-0.75-1.2V81.16c0-0.51,0.25-0.91,0.75-1.2c0.5-0.28,1.21-0.43,2.12-0.43
		c0.94,0,1.65,0.14,2.14,0.43c0.49,0.28,0.73,0.68,0.73,1.2v2.42h-1.47v-2.31c0-0.3-0.13-0.54-0.4-0.72c-0.27-0.18-0.6-0.27-1-0.27
		c-0.38,0-0.71,0.09-0.99,0.27c-0.28,0.18-0.41,0.42-0.41,0.72v11.53c0,0.26,0.14,0.46,0.41,0.61c0.28,0.15,0.61,0.22,0.99,0.22
		c0.3,0,0.56-0.02,0.8-0.06c0.23-0.04,0.44-0.09,0.61-0.16v-5.52h-1.28V87.15z"/>
	<path fill="#D89528" d="M24.9,18.67l1.36,1.56l-0.45-0.21l3.05,0.33c0.31,0.03,0.31,0.51,0,0.53l-3.05,0.33
		c-0.16,0.02-0.31-0.05-0.41-0.16l-0.04-0.05l-1.36-1.56C23.48,18.88,24.39,18.08,24.9,18.67"/>
	<path fill="#D89528" d="M31.92,19.76l3.54-4.9l0.46,0.98h-14.1c-0.78,0-0.79-1.19,0-1.2h14.1c0.52-0.05,0.83,0.63,0.46,0.99
		l-4.25,4.29C32.01,20.04,31.82,19.88,31.92,19.76"/>
	<path fill="#D89528" d="M26.66,44.39c3.81-1.14,8.21,0.47,10.45,3.81l-0.82-0.19l15.12-10.38c0.02-0.03-0.44,1.9-0.43,1.89
		C44.4,28,28.89,23.27,16.91,28.99c-0.34,0.17-0.61-0.38-0.26-0.54c13.1-7,29.9-1.91,37.46,10.78c-0.01,0-1.21,0.74-1.22,0.74
		l-15.95,9.06l-0.52,0.3l-0.3-0.48c-1.79-3.21-5.74-4.97-9.38-4.2C26.57,44.67,26.5,44.43,26.66,44.39"/>
	<path fill="#D89528" d="M22.12,59.72c-2.84-2.79-3.54-7.42-1.69-11l0.23,0.81L4.28,41.28c-0.04-0.01,1.87-0.53,1.87-0.54
		c-6.93,11.33-3.61,27.2,7.18,34.94c0.31,0.21-0.03,0.72-0.35,0.49C1.08,68.54-2.99,51.8,3.74,39.41c0,0,0.64-1.24,0.64-1.24
		c0.01,0,1.23,0.71,1.24,0.71l15.62,9.61l0.51,0.31c-2.18,3.21-2.04,7.75,0.56,10.74C22.41,59.67,22.23,59.84,22.12,59.72"/>
</g>
</svg>
